<svg width="18" height="20" viewBox="0 0 18 20" fill="none" xmlns="http://www.w3.org/2000/svg">
<path fill-rule="evenodd" clip-rule="evenodd" d="M14.0661 1.20598C14.0692 0.841488 13.7763 0.543486 13.4118 0.540377C10.3507 0.514267 8.601 2.00027 8.36559 4.83106C7.39195 4.3305 6.2533 4.16005 5.07764 4.34626C2.05333 4.82527 0.204331 7.37376 0.728369 10.6824C1.3638 14.6944 4.73919 19.6307 7.43094 19.2044C8.0079 19.113 8.53228 18.8075 8.99849 18.3203C9.46471 18.8075 9.98909 19.113 10.566 19.2044C13.2578 19.6307 16.6332 14.6944 17.2686 10.6824C17.7927 7.37376 15.9437 4.82527 12.9193 4.34626C11.7911 4.16756 10.4987 4.18728 9.69423 4.73553C9.91299 2.76445 11.084 1.84057 13.4005 1.86033C13.765 1.86344 14.063 1.57048 14.0661 1.20598Z" fill="#454F5B"/>
</svg>
